<?xml version="1.0" standalone="no"?>
<!DOCTYPE svg PUBLIC "-//W3C//DTD SVG 20010904//EN"
 "http://www.w3.org/TR/2001/REC-SVG-20010904/DTD/svg10.dtd">
<svg version="1.0" xmlns="http://www.w3.org/2000/svg"
 width="1000.000000pt" height="1000.000000pt" viewBox="0 0 1000.000000 1000.000000"
 preserveAspectRatio="xMidYMid meet">
<metadata>
Created by potrace 1.11, written by Peter Selinger 2001-2013
</metadata>
<g transform="translate(0.000000,1000.000000) scale(0.100000,-0.100000)"
fill="#000000" stroke="none">
<path d="M0 5000 l0 -5000 5000 0 5000 0 0 5000 0 5000 -5000 0 -5000 0 0
-5000z m7615 3495 c445 -52 739 -168 941 -372 108 -110 164 -217 191 -373 21
-117 12 -221 -36 -410 -60 -240 -145 -415 -306 -628 -228 -304 -531 -543 -945
-749 -322 -160 -603 -279 -905 -385 -77 -27 -147 -51 -155 -55 -8 -3 37 -12
102 -19 146 -17 350 -57 448 -90 359 -121 599 -355 703 -689 52 -166 59 -339
21 -538 -87 -456 -428 -931 -982 -1364 -127 -100 -434 -306 -582 -390 -667
-382 -1468 -685 -2206 -837 -351 -72 -595 -100 -879 -100 -483 0 -734 99 -863
341 -55 105 -66 165 -58 351 3 89 3 162 -2 162 -12 -1 -117 -134 -192 -245
-62 -90 -84 -114 -156 -166 -73 -53 -90 -71 -130 -140 -42 -73 -92 -129 -115
-129 -28 0 -74 37 -103 83 -43 68 -152 327 -167 397 -16 74 -6 161 30 259 56
152 99 220 435 671 293 394 521 709 646 890 202 295 391 541 1420 1855 1150
1468 1396 1787 1380 1793 -20 7 -456 -126 -690 -211 -91 -32 -232 -88 -314
-123 -86 -37 -163 -64 -183 -64 -44 0 -75 33 -98 105 -14 47 -15 65 -6 119 18
103 16 112 -29 137 -109 61 11 150 421 313 818 324 1881 569 2674 616 196 11
526 4 690 -15z"/>
<path d="M6965 7893 c-484 -29 -775 -61 -1135 -124 -156 -28 -149 -24 -108
-67 44 -45 78 -111 78 -149 0 -20 -26 -64 -88 -148 -48 -66 -222 -313 -387
-550 -318 -458 -479 -687 -753 -1069 -95 -132 -170 -241 -168 -243 12 -12
1250 503 1706 710 1004 456 1756 899 2041 1204 169 181 191 284 75 360 -53 35
-166 56 -396 73 -120 9 -734 11 -865 3z"/>
<path d="M5290 5181 c-372 -108 -817 -219 -1319 -330 -74 -16 -137 -33 -140
-38 -3 -5 -108 -143 -232 -308 -347 -462 -662 -895 -881 -1215 -98 -143 -248
-380 -248 -392 0 -5 37 10 83 33 213 107 628 203 731 169 20 -6 53 -32 76 -58
22 -25 54 -54 70 -63 37 -23 52 -53 52 -100 -1 -42 -20 -85 -50 -112 -11 -11
-86 -43 -166 -72 -281 -103 -408 -169 -446 -230 -25 -41 -28 -120 -4 -129 25
-10 381 -7 479 4 757 85 1803 508 2650 1073 654 436 1091 906 1186 1274 23 91
25 183 4 222 -40 79 -160 139 -378 191 -310 73 -494 91 -992 96 -379 4 -415 3
-475 -15z"/>
</g>
</svg>
